<svg width="409.278" height="99.951" viewBox="0 0 409.278 99.951" xmlns="http://www.w3.org/2000/svg"><g id="svgGroup" strokeLinecap="round" fill-rule="evenodd" font-size="9pt" stroke="#000" stroke-width="0.25mm" fill="#000" style="stroke:#000;stroke-width:0.25mm;fill:#000"><path d="M 112.695 69.287 L 112.012 69.287 A 119.082 119.082 0 0 1 112.25 71.344 A 158.089 158.089 0 0 1 112.476 73.608 A 54.516 54.516 0 0 1 112.64 75.873 A 40.579 40.579 0 0 1 112.695 77.93 L 112.695 99.951 L 101.172 99.951 L 101.172 21.924 L 110.547 21.924 L 112.158 29.395 L 112.695 29.395 A 21.863 21.863 0 0 1 116.113 25.392 A 24.366 24.366 0 0 1 116.382 25.146 A 15.31 15.31 0 0 1 119.896 22.798 A 18.795 18.795 0 0 1 121.655 22.046 A 17.688 17.688 0 0 1 125.132 21.168 Q 126.675 20.932 128.408 20.903 A 29.344 29.344 0 0 1 128.906 20.898 A 21.311 21.311 0 0 1 136.349 22.15 A 18.767 18.767 0 0 1 144.36 27.93 Q 150.195 34.961 150.195 48.828 Q 150.195 56.347 148.377 61.917 A 27.427 27.427 0 0 1 147.485 64.282 A 24.428 24.428 0 0 1 144.592 69.332 A 18.761 18.761 0 0 1 139.917 73.755 A 19.452 19.452 0 0 1 130.878 76.85 A 24.378 24.378 0 0 1 128.613 76.953 Q 124.836 76.953 121.97 76.042 A 15.419 15.419 0 0 1 121.484 75.879 A 19.526 19.526 0 0 1 118.516 74.552 A 15.524 15.524 0 0 1 116.309 73.071 Q 114.16 71.338 112.695 69.287 Z M 225.977 29.102 L 226.514 29.102 Q 226.327 27.943 226.097 25.997 A 184.67 184.67 0 0 1 225.952 24.731 A 53.616 53.616 0 0 1 225.696 21.649 A 41.949 41.949 0 0 1 225.635 19.434 L 225.635 0 L 237.158 0 L 237.158 75.977 L 228.174 75.977 L 226.123 68.604 L 225.635 68.604 A 18.062 18.062 0 0 1 221.948 72.827 A 16.584 16.584 0 0 1 218.237 75.18 A 19.955 19.955 0 0 1 216.675 75.83 A 17.341 17.341 0 0 1 213.377 76.668 Q 211.791 76.917 209.991 76.949 A 29.92 29.92 0 0 1 209.473 76.953 A 21.406 21.406 0 0 1 201.998 75.697 A 18.752 18.752 0 0 1 193.97 69.897 Q 189.539 64.539 188.473 55.31 A 54.445 54.445 0 0 1 188.135 49.072 Q 188.135 40.07 190.618 33.908 A 21.918 21.918 0 0 1 194.067 28.027 A 19.089 19.089 0 0 1 207.928 20.961 A 25.116 25.116 0 0 1 209.717 20.898 A 26.029 26.029 0 0 1 213.109 21.109 Q 214.907 21.345 216.457 21.848 A 15.774 15.774 0 0 1 216.895 21.997 A 18.583 18.583 0 0 1 220.246 23.569 A 15.551 15.551 0 0 1 222.192 24.951 A 20.235 20.235 0 0 1 225.977 29.102 Z M 85.107 39.6 L 85.107 75.977 L 76.953 75.977 L 74.756 68.311 L 74.365 68.311 A 32.09 32.09 0 0 1 72.034 70.984 A 24.302 24.302 0 0 1 69.629 73.145 Q 67.188 75.049 63.989 76.001 A 20.855 20.855 0 0 1 61.043 76.635 Q 58.855 76.953 56.201 76.953 A 22.445 22.445 0 0 1 51.354 76.45 A 18.161 18.161 0 0 1 47.559 75.171 A 13.584 13.584 0 0 1 41.553 69.727 A 14.51 14.51 0 0 1 39.905 65.576 Q 39.355 63.257 39.355 60.449 A 17.717 17.717 0 0 1 40.091 55.199 A 13.365 13.365 0 0 1 45.581 47.9 A 21.728 21.728 0 0 1 50.812 45.39 Q 55.932 43.664 63.369 43.305 A 77.421 77.421 0 0 1 64.404 43.262 L 73.779 42.92 L 73.779 40.088 A 19.023 19.023 0 0 0 73.584 37.258 Q 73.065 33.818 71.167 32.08 A 8.569 8.569 0 0 0 67.733 30.196 Q 66.434 29.815 64.882 29.719 A 17.36 17.36 0 0 0 63.818 29.687 A 26.58 26.58 0 0 0 55.957 30.859 A 55.536 55.536 0 0 0 48.535 33.74 L 44.824 25.635 A 37.799 37.799 0 0 1 49.908 23.417 A 47.776 47.776 0 0 1 53.833 22.217 Q 58.887 20.898 64.355 20.898 A 37.025 37.025 0 0 1 70.139 21.32 Q 73.174 21.801 75.604 22.831 A 15.972 15.972 0 0 1 79.858 25.439 Q 84.351 29.326 84.999 36.934 A 31.466 31.466 0 0 1 85.107 39.6 Z M 295.508 39.6 L 295.508 75.977 L 287.354 75.977 L 285.156 68.311 L 284.766 68.311 A 32.09 32.09 0 0 1 282.434 70.984 A 24.302 24.302 0 0 1 280.029 73.145 Q 277.588 75.049 274.39 76.001 A 20.855 20.855 0 0 1 271.443 76.635 Q 269.255 76.953 266.602 76.953 A 22.445 22.445 0 0 1 261.755 76.45 A 18.161 18.161 0 0 1 257.959 75.171 A 13.584 13.584 0 0 1 251.953 69.727 A 14.51 14.51 0 0 1 250.305 65.576 Q 249.756 63.257 249.756 60.449 A 17.717 17.717 0 0 1 250.491 55.199 A 13.365 13.365 0 0 1 255.981 47.9 A 21.728 21.728 0 0 1 261.213 45.39 Q 266.332 43.664 273.769 43.305 A 77.421 77.421 0 0 1 274.805 43.262 L 284.18 42.92 L 284.18 40.088 A 19.023 19.023 0 0 0 283.984 37.258 Q 283.465 33.818 281.567 32.08 A 8.569 8.569 0 0 0 278.134 30.196 Q 276.835 29.815 275.282 29.719 A 17.36 17.36 0 0 0 274.219 29.687 A 26.58 26.58 0 0 0 266.357 30.859 A 55.536 55.536 0 0 0 258.936 33.74 L 255.225 25.635 A 37.799 37.799 0 0 1 260.309 23.417 A 47.776 47.776 0 0 1 264.233 22.217 Q 269.287 20.898 274.756 20.898 A 37.025 37.025 0 0 1 280.54 21.32 Q 283.574 21.801 286.004 22.831 A 15.972 15.972 0 0 1 290.259 25.439 Q 294.752 29.326 295.399 36.934 A 31.466 31.466 0 0 1 295.508 39.6 Z M 380.908 39.6 L 380.908 75.977 L 372.754 75.977 L 370.557 68.311 L 370.166 68.311 A 32.09 32.09 0 0 1 367.834 70.984 A 24.302 24.302 0 0 1 365.43 73.145 Q 362.988 75.049 359.79 76.001 A 20.855 20.855 0 0 1 356.844 76.635 Q 354.655 76.953 352.002 76.953 A 22.445 22.445 0 0 1 347.155 76.45 A 18.161 18.161 0 0 1 343.359 75.171 A 13.584 13.584 0 0 1 337.354 69.727 A 14.51 14.51 0 0 1 335.706 65.576 Q 335.156 63.257 335.156 60.449 A 17.717 17.717 0 0 1 335.892 55.199 A 13.365 13.365 0 0 1 341.382 47.9 A 21.728 21.728 0 0 1 346.613 45.39 Q 351.733 43.664 359.169 43.305 A 77.421 77.421 0 0 1 360.205 43.262 L 369.58 42.92 L 369.58 40.088 A 19.023 19.023 0 0 0 369.385 37.258 Q 368.866 33.818 366.968 32.08 A 8.569 8.569 0 0 0 363.534 30.196 Q 362.235 29.815 360.683 29.719 A 17.36 17.36 0 0 0 359.619 29.687 A 26.58 26.58 0 0 0 351.758 30.859 A 55.536 55.536 0 0 0 344.336 33.74 L 340.625 25.635 A 37.799 37.799 0 0 1 345.709 23.417 A 47.776 47.776 0 0 1 349.634 22.217 Q 354.688 20.898 360.156 20.898 A 37.025 37.025 0 0 1 365.94 21.32 Q 368.975 21.801 371.405 22.831 A 15.972 15.972 0 0 1 375.659 25.439 Q 380.152 29.326 380.799 36.934 A 31.466 31.466 0 0 1 380.908 39.6 Z M 33.154 21.436 L 32.08 32.178 A 10.448 10.448 0 0 0 31.246 31.979 Q 30.496 31.83 29.565 31.738 Q 28.076 31.592 26.904 31.592 Q 23.828 31.592 21.045 32.593 A 14.034 14.034 0 0 0 16.113 35.62 A 13.572 13.572 0 0 0 13.323 39.397 A 16.319 16.319 0 0 0 12.744 40.674 A 16.293 16.293 0 0 0 11.774 44.277 A 22.343 22.343 0 0 0 11.523 47.705 L 11.523 75.977 L 0 75.977 L 0 21.924 L 8.984 21.924 L 10.547 31.445 L 11.084 31.445 Q 12.695 28.564 15.088 26.172 A 19.063 19.063 0 0 1 20.581 22.339 A 15.66 15.66 0 0 1 26.361 20.927 A 18.489 18.489 0 0 1 27.393 20.898 Q 28.76 20.898 30.371 21.045 Q 31.982 21.191 33.154 21.436 Z M 163.428 21.924 L 174.902 21.924 L 174.902 75.977 L 163.428 75.977 L 163.428 21.924 Z M 396.973 21.924 L 408.447 21.924 L 408.447 75.977 L 396.973 75.977 L 396.973 21.924 Z M 226.221 50.635 L 226.221 49.121 Q 226.221 43.394 225.056 39.346 A 17.304 17.304 0 0 0 223.291 35.181 Q 220.361 30.322 212.598 30.322 A 12.171 12.171 0 0 0 208.362 31.026 Q 205.179 32.199 203.149 35.327 Q 199.902 40.332 199.902 49.268 A 39.499 39.499 0 0 0 200.204 54.321 Q 200.892 59.639 203.149 62.915 A 10.474 10.474 0 0 0 210.801 67.512 A 15.093 15.093 0 0 0 212.695 67.627 A 20.003 20.003 0 0 0 216.487 67.293 Q 218.563 66.892 220.145 66.006 A 8.915 8.915 0 0 0 223.096 63.379 A 14.086 14.086 0 0 0 224.954 59.595 Q 226.122 56.059 226.216 50.965 A 47.778 47.778 0 0 0 226.221 50.635 Z M 112.695 47.217 L 112.695 48.828 Q 112.695 53.426 113.425 56.951 A 24.781 24.781 0 0 0 113.94 59.009 A 14.474 14.474 0 0 0 115.256 62.123 A 10.594 10.594 0 0 0 118.091 65.356 Q 120.996 67.529 125.977 67.529 A 12.637 12.637 0 0 0 129.207 67.136 A 9.564 9.564 0 0 0 132.935 65.234 A 11.946 11.946 0 0 0 135.659 61.928 Q 136.458 60.529 137.024 58.803 A 20.602 20.602 0 0 0 137.061 58.691 Q 138.292 54.867 138.414 49.814 A 46.692 46.692 0 0 0 138.428 48.682 A 39.858 39.858 0 0 0 138.125 43.6 Q 137.459 38.431 135.327 35.107 A 10.051 10.051 0 0 0 128.022 30.43 A 14.81 14.81 0 0 0 125.83 30.273 Q 121.094 30.273 118.237 32.153 A 9.908 9.908 0 0 0 114.938 35.827 A 13.322 13.322 0 0 0 114.087 37.793 A 22.478 22.478 0 0 0 113.235 41.153 Q 112.934 42.838 112.798 44.785 A 46.665 46.665 0 0 0 112.695 47.217 Z M 73.73 54.834 L 73.73 50.146 L 66.748 50.391 A 46.811 46.811 0 0 0 62.772 50.684 Q 58.806 51.16 56.348 52.326 A 9.368 9.368 0 0 0 54.688 53.32 A 8.418 8.418 0 0 0 51.275 59.43 A 11.254 11.254 0 0 0 51.221 60.547 A 10.575 10.575 0 0 0 51.432 62.733 Q 51.931 65.094 53.613 66.382 Q 55.803 68.057 59.259 68.2 A 15.867 15.867 0 0 0 59.912 68.213 A 17.215 17.215 0 0 0 64.578 67.609 A 13.446 13.446 0 0 0 69.8 64.819 A 10.876 10.876 0 0 0 73.223 59.159 Q 73.73 57.203 73.73 54.834 Z M 284.131 54.834 L 284.131 50.146 L 277.148 50.391 A 46.811 46.811 0 0 0 273.172 50.684 Q 269.206 51.16 266.749 52.326 A 9.368 9.368 0 0 0 265.088 53.32 A 8.418 8.418 0 0 0 261.675 59.43 A 11.254 11.254 0 0 0 261.621 60.547 A 10.575 10.575 0 0 0 261.832 62.733 Q 262.331 65.094 264.014 66.382 Q 266.203 68.057 269.66 68.2 A 15.867 15.867 0 0 0 270.313 68.213 A 17.215 17.215 0 0 0 274.978 67.609 A 13.446 13.446 0 0 0 280.2 64.819 A 10.876 10.876 0 0 0 283.623 59.159 Q 284.131 57.203 284.131 54.834 Z M 369.531 54.834 L 369.531 50.146 L 362.549 50.391 A 46.811 46.811 0 0 0 358.572 50.684 Q 354.607 51.16 352.149 52.326 A 9.368 9.368 0 0 0 350.488 53.32 A 8.418 8.418 0 0 0 347.076 59.43 A 11.254 11.254 0 0 0 347.021 60.547 A 10.575 10.575 0 0 0 347.232 62.733 Q 347.732 65.094 349.414 66.382 Q 351.603 68.057 355.06 68.2 A 15.867 15.867 0 0 0 355.713 68.213 A 17.215 17.215 0 0 0 360.378 67.609 A 13.446 13.446 0 0 0 365.601 64.819 A 10.876 10.876 0 0 0 369.024 59.159 Q 369.531 57.203 369.531 54.834 Z M 310.067 67.909 A 12.105 12.105 0 0 0 309.912 69.922 A 12.607 12.607 0 0 0 309.983 71.29 Q 310.295 74.148 311.987 75.562 A 7.212 7.212 0 0 0 314.407 76.901 A 8.495 8.495 0 0 0 317.041 77.295 A 9.779 9.779 0 0 0 317.682 77.274 A 7.669 7.669 0 0 0 322.144 75.562 A 5.054 5.054 0 0 0 323.415 73.999 Q 323.879 73.127 324.09 71.999 A 11.303 11.303 0 0 0 324.268 69.922 Q 324.268 65.918 322.144 64.282 A 7.615 7.615 0 0 0 319.726 63.03 A 9.054 9.054 0 0 0 317.041 62.646 A 9.931 9.931 0 0 0 315.868 62.714 A 7.582 7.582 0 0 0 311.987 64.282 A 4.742 4.742 0 0 0 310.624 66.044 Q 310.244 66.861 310.067 67.909 Z M 171.751 1.591 A 8.236 8.236 0 0 0 169.238 1.221 A 9.32 9.32 0 0 0 167.768 1.333 A 6.959 6.959 0 0 0 164.624 2.637 A 4.128 4.128 0 0 0 163.401 4.137 Q 162.744 5.47 162.744 7.52 A 10.616 10.616 0 0 0 162.806 8.696 Q 162.91 9.622 163.185 10.367 A 4.378 4.378 0 0 0 164.624 12.378 A 6.736 6.736 0 0 0 167.009 13.543 A 8.618 8.618 0 0 0 169.238 13.818 A 9.167 9.167 0 0 0 169.926 13.793 A 7.247 7.247 0 0 0 173.804 12.378 A 4.222 4.222 0 0 0 174.995 10.99 Q 175.732 9.632 175.732 7.52 Q 175.732 4.053 173.804 2.637 A 7.074 7.074 0 0 0 171.751 1.591 Z M 405.296 1.591 A 8.236 8.236 0 0 0 402.783 1.221 A 9.32 9.32 0 0 0 401.313 1.333 A 6.959 6.959 0 0 0 398.169 2.637 A 4.128 4.128 0 0 0 396.946 4.137 Q 396.289 5.47 396.289 7.52 A 10.616 10.616 0 0 0 396.351 8.696 Q 396.454 9.622 396.73 10.367 A 4.378 4.378 0 0 0 398.169 12.378 A 6.736 6.736 0 0 0 400.554 13.543 A 8.618 8.618 0 0 0 402.783 13.818 A 9.167 9.167 0 0 0 403.471 13.793 A 7.247 7.247 0 0 0 407.349 12.378 A 4.222 4.222 0 0 0 408.54 10.99 Q 409.277 9.632 409.277 7.52 Q 409.277 4.053 407.349 2.637 A 7.074 7.074 0 0 0 405.296 1.591 Z" vector-effect="non-scaling-stroke"/></g></svg>