<?xml version="1.0" encoding="utf-8"?>
<!-- Generator: Adobe Illustrator 27.2.0, SVG Export Plug-In . SVG Version: 6.00 Build 0)  -->
<svg version="1.1" xmlns="http://www.w3.org/2000/svg" xmlns:xlink="http://www.w3.org/1999/xlink" x="0px" y="0px"
	 viewBox="0 0 1920 1080" style="enable-background:new 0 0 1920 1080;" xml:space="preserve">
<style type="text/css">
	.st0{fill:#334154;}
	.st1{fill:#2763E6;}
</style>
<g id="name">
	<g>
		<path class="st0" d="M832.2,499.25c4.6-3.5,9.63-6.22,15.1-8.15s11.31-2.9,17.51-2.9h0.43c3.57,0,6.34,1.02,8.32,3.06
			c1.97,2.04,2.96,4.64,2.96,7.77c0,3.14-1.1,5.73-3.29,7.77c-2.18,2.04-4.85,3.07-7.99,3.07h-0.43c-4.45,0-8.67,0.86-12.64,2.57
			c-3.97,1.71-7.44,4.07-10.39,7.06c-2.96,2.99-5.29,6.5-7.01,10.51c-1.72,4.01-2.57,8.32-2.57,12.91v37.53
			c0,3.06-1.04,5.64-3.12,7.71c-2.08,2.08-4.65,3.12-7.71,3.12c-1.46,0-2.87-0.27-4.21-0.82c-1.35-0.55-2.51-1.31-3.5-2.3
			c-0.98-0.99-1.77-2.13-2.35-3.45c-0.59-1.31-0.87-2.73-0.87-4.27v-81.41c0-1.53,0.29-2.96,0.87-4.27
			c0.58-1.32,1.37-2.46,2.35-3.45c0.99-0.98,2.15-1.77,3.5-2.35c1.35-0.58,2.79-0.87,4.33-0.87c1.53,0,2.95,0.29,4.27,0.87
			c1.31,0.58,2.44,1.37,3.39,2.35c0.95,0.99,1.7,2.13,2.24,3.45c0.55,1.31,0.82,2.73,0.82,4.27V499.25z"/>
		<path class="st0" d="M879.15,540.39c0-7.22,1.36-13.99,4.1-20.3c2.74-6.31,6.47-11.83,11.21-16.58
			c4.74-4.74,10.29-8.48,16.64-11.22c6.34-2.73,13.09-4.1,20.24-4.1c7.15,0,13.86,1.35,20.13,4.05c6.28,2.7,11.77,6.4,16.47,11.11
			c4.71,4.71,8.44,10.2,11.21,16.47c2.77,6.28,4.19,12.99,4.27,20.14v40.16c0,1.53-0.29,2.97-0.87,4.32
			c-0.58,1.35-1.36,2.53-2.35,3.56c-0.98,1.02-2.17,1.82-3.55,2.41c-1.39,0.58-2.85,0.87-4.38,0.87c-2.92,0-5.34-0.96-7.27-2.88
			c-1.94-1.92-3.05-4.26-3.34-7.02c-4.31,3.48-9.01,6.22-14.11,8.22c-5.11,1.99-10.51,2.99-16.2,2.99c-7.15,0-13.9-1.37-20.24-4.1
			c-6.35-2.73-11.89-6.47-16.64-11.21c-4.74-4.74-8.48-10.27-11.21-16.58C880.51,554.38,879.15,547.61,879.15,540.39z
			 M900.92,540.44c0,4.17,0.8,8.1,2.41,11.78c1.61,3.69,3.78,6.91,6.53,9.65c2.74,2.74,5.95,4.92,9.64,6.52
			c3.69,1.61,7.62,2.41,11.78,2.41c4.24,0,8.21-0.8,11.89-2.41c3.69-1.61,6.91-3.78,9.65-6.52c2.74-2.74,4.9-5.96,6.47-9.65
			c1.57-3.69,2.36-7.62,2.36-11.78c0-4.24-0.79-8.18-2.36-11.84s-3.73-6.85-6.47-9.59c-2.74-2.74-5.96-4.9-9.65-6.47
			c-3.69-1.57-7.65-2.36-11.89-2.36c-4.16,0-8.09,0.78-11.78,2.36c-3.69,1.57-6.91,3.73-9.64,6.47c-2.74,2.74-4.92,5.94-6.53,9.59
			C901.72,532.26,900.92,536.21,900.92,540.44z"/>
		<path class="st0" d="M1057.4,592.59c-5.69,0-11.11-0.86-16.25-2.57c-5.15-1.71-9.87-4.14-14.17-7.28v34.8
			c0,3.07-1.06,5.62-3.17,7.66c-2.12,2.04-4.71,3.07-7.77,3.07c-3.06,0-5.63-1.03-7.71-3.07c-2.08-2.04-3.12-4.59-3.12-7.66V498.92
			c0-3.07,1.04-5.62,3.12-7.66c2.08-2.04,4.66-3.06,7.71-3.06c1.39,0,2.72,0.25,3.99,0.76s2.41,1.2,3.39,2.08
			c0.99,0.87,1.79,1.91,2.41,3.12c0.61,1.21,1,2.5,1.15,3.89c4.3-3.07,9.02-5.47,14.17-7.22c5.14-1.75,10.56-2.62,16.25-2.62
			c7.22,0,13.99,1.37,20.3,4.1c6.3,2.74,11.81,6.48,16.52,11.22c4.7,4.74,8.42,10.27,11.16,16.58c2.74,6.31,4.1,13.08,4.1,20.3
			s-1.36,13.99-4.1,20.3c-2.74,6.31-6.46,11.84-11.16,16.58c-4.71,4.74-10.22,8.48-16.52,11.21
			C1071.39,591.22,1064.62,592.59,1057.4,592.59z M1027.09,540.39c0,4.16,0.8,8.08,2.41,11.76c1.6,3.69,3.77,6.9,6.51,9.63
			c2.74,2.73,5.95,4.91,9.63,6.51c3.69,1.6,7.61,2.41,11.77,2.41c4.23,0,8.19-0.8,11.87-2.41c3.69-1.61,6.89-3.78,9.63-6.51
			c2.74-2.73,4.89-5.94,6.46-9.63c1.56-3.68,2.35-7.6,2.35-11.76c0-4.23-0.79-8.17-2.35-11.82c-1.57-3.65-3.72-6.84-6.46-9.57
			c-2.74-2.73-5.94-4.89-9.63-6.46c-3.68-1.57-7.64-2.35-11.87-2.35c-4.16,0-8.08,0.78-11.77,2.35c-3.68,1.57-6.89,3.72-9.63,6.46
			c-2.73,2.73-4.9,5.93-6.51,9.57C1027.89,532.22,1027.09,536.16,1027.09,540.39z"/>
		<path class="st0" d="M1124.8,459.8c0.66-1.49,1.54-2.79,2.62-3.88c1.1-1.1,2.37-1.95,3.83-2.57c1.46-0.62,3.03-0.93,4.7-0.93
			c1.68,0,3.25,0.31,4.71,0.93c1.46,0.62,2.74,1.48,3.83,2.57c1.1,1.1,1.97,2.39,2.63,3.88c0.65,1.5,0.98,3.08,0.98,4.76
			c0,1.68-0.33,3.25-0.98,4.71c-0.66,1.46-1.54,2.73-2.63,3.83c-1.09,1.09-2.37,1.95-3.83,2.57c-1.46,0.62-3.03,0.93-4.71,0.93
			c-1.68,0-3.25-0.31-4.7-0.93c-1.46-0.62-2.74-1.48-3.83-2.57c-1.09-1.1-1.96-2.37-2.62-3.83c-0.65-1.46-0.98-3.03-0.98-4.71
			C1123.82,462.88,1124.15,461.29,1124.8,459.8z M1146.91,580.44c0,3.06-1.04,5.64-3.12,7.71c-2.08,2.08-4.65,3.12-7.71,3.12
			c-1.46,0-2.87-0.27-4.21-0.82c-1.35-0.55-2.52-1.31-3.5-2.3c-0.99-0.99-1.77-2.13-2.36-3.45c-0.58-1.31-0.87-2.73-0.87-4.27
			v-81.41c0-1.53,0.29-2.96,0.87-4.27c0.59-1.32,1.39-2.46,2.41-3.45c1.02-0.98,2.19-1.77,3.5-2.35c1.32-0.58,2.74-0.87,4.27-0.87
			c1.54,0,2.96,0.29,4.27,0.87c1.32,0.58,2.44,1.37,3.39,2.35c0.95,0.99,1.7,2.13,2.24,3.45c0.55,1.31,0.82,2.73,0.82,4.27V580.44z"
			/>
		<path class="st0" d="M1266.73,580.55c0,3.06-1.06,5.62-3.17,7.66c-2.12,2.04-4.7,3.07-7.77,3.07c-2.7,0-5.04-0.82-7.01-2.46
			c-1.96-1.64-3.21-3.74-3.72-6.29c-4.3,3.14-9.02,5.58-14.17,7.33c-5.14,1.75-10.56,2.62-16.25,2.62c-7.15,0-13.9-1.37-20.24-4.1
			c-6.35-2.74-11.89-6.46-16.64-11.16c-4.74-4.71-8.48-10.23-11.21-16.58c-2.74-6.35-4.1-13.09-4.1-20.24
			c0-7.22,1.36-14.01,4.1-20.35s6.47-11.87,11.21-16.58c4.74-4.71,10.29-8.43,16.64-11.16c6.34-2.73,13.09-4.1,20.24-4.1
			c5.69,0,11.09,0.86,16.2,2.57c5.1,1.71,9.8,4.1,14.11,7.17v-36c0-3.06,1.04-5.62,3.12-7.66c2.08-2.04,4.65-3.06,7.71-3.06
			s5.65,1.02,7.77,3.06c2.12,2.04,3.17,4.6,3.17,7.66V580.55z M1184.33,540.39c0,4.16,0.8,8.08,2.41,11.76
			c1.6,3.69,3.77,6.9,6.51,9.63c2.73,2.73,5.94,4.89,9.62,6.46c3.69,1.57,7.61,2.35,11.77,2.35c4.15,0,8.04-0.75,11.65-2.24
			c3.61-1.49,6.77-3.56,9.46-6.18c2.7-2.63,4.87-5.69,6.51-9.19c1.64-3.5,2.53-7.26,2.68-11.27v-2.52
			c-0.15-4.08-1.04-7.89-2.68-11.43c-1.64-3.54-3.81-6.6-6.51-9.19c-2.7-2.59-5.86-4.63-9.46-6.13c-3.61-1.5-7.5-2.24-11.65-2.24
			c-4.16,0-8.08,0.78-11.77,2.35c-3.68,1.57-6.89,3.72-9.62,6.46c-2.74,2.73-4.91,5.93-6.51,9.57
			C1185.13,532.22,1184.33,536.16,1184.33,540.39z"/>
		<path class="st0" d="M1282.49,540.39c0-7.22,1.36-13.99,4.1-20.3c2.74-6.31,6.47-11.83,11.21-16.58
			c4.74-4.74,10.29-8.48,16.64-11.22c6.34-2.73,13.09-4.1,20.24-4.1c7.15,0,13.86,1.35,20.13,4.05c6.28,2.7,11.77,6.4,16.47,11.11
			c4.71,4.71,8.44,10.2,11.21,16.47c2.77,6.28,4.19,12.99,4.27,20.14v40.16c0,1.53-0.29,2.97-0.87,4.32
			c-0.58,1.35-1.36,2.53-2.35,3.56c-0.98,1.02-2.17,1.82-3.55,2.41c-1.39,0.58-2.85,0.87-4.38,0.87c-2.92,0-5.34-0.96-7.27-2.88
			c-1.94-1.92-3.05-4.26-3.34-7.02c-4.31,3.48-9.01,6.22-14.11,8.22c-5.11,1.99-10.51,2.99-16.2,2.99c-7.15,0-13.9-1.37-20.24-4.1
			c-6.35-2.73-11.89-6.47-16.64-11.21c-4.74-4.74-8.48-10.27-11.21-16.58C1283.85,554.38,1282.49,547.61,1282.49,540.39z
			 M1304.26,540.44c0,4.17,0.8,8.1,2.41,11.78c1.61,3.69,3.78,6.91,6.53,9.65c2.74,2.74,5.95,4.92,9.64,6.52
			c3.69,1.61,7.62,2.41,11.78,2.41c4.24,0,8.21-0.8,11.89-2.41c3.69-1.61,6.91-3.78,9.65-6.52c2.74-2.74,4.9-5.96,6.47-9.65
			c1.57-3.69,2.36-7.62,2.36-11.78c0-4.24-0.79-8.18-2.36-11.84c-1.57-3.65-3.73-6.85-6.47-9.59c-2.74-2.74-5.96-4.9-9.65-6.47
			c-3.69-1.57-7.65-2.36-11.89-2.36c-4.16,0-8.09,0.78-11.78,2.36c-3.69,1.57-6.91,3.73-9.64,6.47c-2.74,2.74-4.92,5.94-6.53,9.59
			C1305.06,532.26,1304.26,536.21,1304.26,540.44z"/>
	</g>
</g>
<g id="icon">
	<g>
		<path class="st1" d="M633.44,620.78c-3.95,4.52-9.12,7.01-14.55,7.01c-5.43,0-10.59-2.49-14.55-7.01l-55.07-62.95
			c-8.73-9.97-8.73-26.2,0-36.18l55.07-62.95c3.95-4.52,9.12-7.01,14.55-7.01c5.43,0,10.59,2.49,14.55,7.01l6.69,7.65l5.38-6.08
			l-5.45-6.23c-5.5-6.29-13.22-9.9-21.17-9.9s-15.67,3.61-21.17,9.9l-55.07,62.95c-10.97,12.54-10.97,32.95,0,45.49l55.07,62.95
			c5.59,6.39,13.11,9.9,21.17,9.9s15.59-3.52,21.17-9.9l5.41-6.18l-5.36-6.11L633.44,620.78z"/>
		<path class="st1" d="M675.89,620.78c-3.95,4.52-9.12,7.01-14.55,7.01c-5.43,0-10.59-2.49-14.55-7.01l-55.07-62.95
			c-8.73-9.97-8.73-26.2,0-36.18l55.07-62.95c3.95-4.52,9.12-7.01,14.55-7.01c5.43,0,10.59,2.49,14.55,7.01l4.52,5.16l5.88-5.51
			l-3.77-4.31c-5.5-6.29-13.22-9.9-21.17-9.9s-15.67,3.61-21.17,9.9l-55.07,62.95c-10.97,12.54-10.97,32.95,0,45.49l55.07,62.95
			c5.59,6.39,13.11,9.9,21.17,9.9s15.59-3.52,21.17-9.9l4.15-4.75l-5.38-6.09L675.89,620.78z"/>
		<path class="st1" d="M742,513.74l-42.4-48.47l-12.56,14.19l39.5,45.15c3.57,4.08,5.34,9.57,5.33,15.05
			c0.01,5.48-1.76,10.97-5.33,15.05l-39.5,45.15l12.56,14.19l42.4-48.47c6.25-7.14,9.37-16.54,9.35-25.92
			C751.37,530.28,748.26,520.89,742,513.74z"/>
		<path class="st1" d="M698.37,514.28l-42.4-48.47L643.41,480l39.5,45.15c3.57,4.08,5.34,9.57,5.33,15.05
			c0.01,5.48-1.76,10.97-5.33,15.05l-39.5,45.15l12.56,14.19l42.4-48.47c6.25-7.14,9.37-16.54,9.35-25.92
			C707.74,530.81,704.62,521.42,698.37,514.28z"/>
	</g>
</g>
</svg>
