<svg width="242" height="72" viewBox="0 0 242 72" fill="none" xmlns="http://www.w3.org/2000/svg">
<path d="M4.93332 56V25.9333H-1.60933e-05V16H10.1333V23.7333H12.9333C14.0444 21.0667 15.7555 19.0444 18.0667 17.6667C20.3778 16.2889 23.0222 15.6 26 15.6H29.3333V24.1333H25.5333C21.9333 24.1333 19.2222 25.1778 17.4 27.2667C15.6222 29.3556 14.7333 32.1333 14.7333 35.6V56H4.93332ZM46.9 56.7333C42.2333 56.7333 38.5667 55.6 35.9 53.3333C33.2778 51.0667 31.9667 48.0667 31.9667 44.3333C31.9667 40.4222 33.3 37.4 35.9667 35.2667C38.6778 33.1333 42.5667 32.0667 47.6333 32.0667H59.8333V30.4667C59.8333 25.5778 56.9889 23.1333 51.3 23.1333C46.5 23.1333 43.5889 24.8667 42.5667 28.3333H32.6333C33.4333 24.0667 35.4333 20.8222 38.6333 18.6C41.8778 16.3333 46.1 15.2 51.3 15.2C57.1667 15.2 61.6333 16.5333 64.7 19.2C67.7667 21.8222 69.3 25.6667 69.3 30.7333V46.0667H74.0333V56H63.8333V49.6H61.0333C59.6555 51.8667 57.7889 53.6222 55.4333 54.8667C53.1222 56.1111 50.2778 56.7333 46.9 56.7333ZM48.3667 49.0667C50.5444 49.0667 52.5 48.6667 54.2333 47.8667C55.9667 47.0222 57.3222 45.9111 58.3 44.5333C59.3222 43.1111 59.8333 41.5333 59.8333 39.8V38.8667H48.1667C43.6778 38.8667 41.4333 40.5333 41.4333 43.8667C41.4333 45.5111 42.0333 46.8 43.2333 47.7333C44.4778 48.6222 46.1889 49.0667 48.3667 49.0667ZM82.1573 72V25.9333H77.2239V16H87.4239V22.4H90.2239C91.6017 20.0889 93.4684 18.3111 95.8239 17.0667C98.1795 15.8222 101.024 15.2 104.357 15.2C108.491 15.2 111.957 16.0667 114.757 17.8C117.602 19.4889 119.757 21.8889 121.224 25C122.691 28.1111 123.424 31.7778 123.424 36C123.424 40.2222 122.691 43.8889 121.224 47C119.802 50.1111 117.735 52.5333 115.024 54.2667C112.313 55.9556 109.046 56.8 105.224 56.8C102.202 56.8 99.6017 56.2222 97.4239 55.0667C95.2462 53.9111 93.5573 52.2889 92.3573 50.2H92.0906V72H82.1573ZM102.557 48.2C106.157 48.2 108.868 47.1333 110.691 45C112.557 42.8222 113.491 39.8222 113.491 36C113.491 32.1778 112.557 29.2 110.691 27.0667C108.868 24.8889 106.157 23.8 102.557 23.8C99.4017 23.8 96.8684 24.7111 94.9573 26.5333C93.0462 28.3111 92.0906 30.7556 92.0906 33.8667V38.1333C92.0906 41.2444 93.0462 43.7111 94.9573 45.5333C96.8684 47.3111 99.4017 48.2 102.557 48.2ZM130.895 56V16H140.828V56H130.895ZM135.828 11.6C134.273 11.6 132.939 11.0667 131.828 10C130.761 8.88889 130.228 7.55555 130.228 6C130.228 4.44444 130.761 3.13333 131.828 2.06667C132.939 0.955556 134.273 0.400001 135.828 0.400001C137.384 0.400001 138.695 0.955556 139.761 2.06667C140.873 3.13333 141.428 4.44444 141.428 6C141.428 7.55555 140.873 8.88889 139.761 10C138.695 11.0667 137.384 11.6 135.828 11.6ZM167.339 56.8C163.25 56.8 159.783 55.9556 156.939 54.2667C154.094 52.5333 151.916 50.1111 150.405 47C148.939 43.8444 148.205 40.1778 148.205 36C148.205 31.7778 148.916 28.1111 150.339 25C151.805 21.8889 153.894 19.4889 156.605 17.8C159.361 16.0667 162.65 15.2 166.472 15.2C169.494 15.2 172.094 15.7778 174.272 16.9333C176.45 18.0444 178.116 19.6667 179.272 21.8H179.539V9.53674e-07H189.472V46.0667H194.405V56H184.272V49.6H181.472C180.05 51.9111 178.161 53.6889 175.805 54.9333C173.45 56.1778 170.627 56.8 167.339 56.8ZM169.072 48.2C172.272 48.2 174.805 47.3111 176.672 45.5333C178.583 43.7111 179.539 41.2444 179.539 38.1333V33.8667C179.539 30.7556 178.583 28.3111 176.672 26.5333C174.805 24.7111 172.272 23.8 169.072 23.8C165.516 23.8 162.805 24.8889 160.939 27.0667C159.072 29.2 158.139 32.1778 158.139 36C158.139 39.8222 159.072 42.8222 160.939 45C162.805 47.1333 165.516 48.2 169.072 48.2ZM214.009 56.7333C209.343 56.7333 205.676 55.6 203.009 53.3333C200.387 51.0667 199.076 48.0667 199.076 44.3333C199.076 40.4222 200.409 37.4 203.076 35.2667C205.787 33.1333 209.676 32.0667 214.743 32.0667H226.943V30.4667C226.943 25.5778 224.098 23.1333 218.409 23.1333C213.609 23.1333 210.698 24.8667 209.676 28.3333H199.743C200.543 24.0667 202.543 20.8222 205.743 18.6C208.987 16.3333 213.209 15.2 218.409 15.2C224.276 15.2 228.743 16.5333 231.809 19.2C234.876 21.8222 236.409 25.6667 236.409 30.7333V46.0667H241.143V56H230.943V49.6H228.143C226.765 51.8667 224.898 53.6222 222.543 54.8667C220.232 56.1111 217.387 56.7333 214.009 56.7333ZM215.476 49.0667C217.654 49.0667 219.609 48.6667 221.343 47.8667C223.076 47.0222 224.432 45.9111 225.409 44.5333C226.432 43.1111 226.943 41.5333 226.943 39.8V38.8667H215.276C210.787 38.8667 208.543 40.5333 208.543 43.8667C208.543 45.5111 209.143 46.8 210.343 47.7333C211.587 48.6222 213.298 49.0667 215.476 49.0667Z" fill="#1E40AF"/>
</svg>
